<svg id="Bahan_copy_2" viewBox="0 0 64 64" xmlns="http://www.w3.org/2000/svg" data-name="Bahan copy 2" width="300" height="300" version="1.1" xmlns:xlink="http://www.w3.org/1999/xlink" xmlns:svgjs="http://svgjs.dev/svgjs"><g width="100%" height="100%" transform="matrix(1,0,0,1,0,0)"><g fill="rgb(0,0,0)"><path d="m21.29 34.5a10.89138 10.89138 0 0 1 -.29-2.5 11.00656 11.00656 0 0 1 11-11 10.89138 10.89138 0 0 1 2.5.29c1.0611-1.064 3.90023-3.89813 4.94-4.94-11.78-2.67-24.1 1.19-33.48 10.59-2.59247 2.4719-2.58707 7.65105.0001 10.13a41.79956 41.79956 0 0 0 7.0599 5.7z" fill="#ffffff" fill-opacity="1" data-original-color="#000000ff" stroke="none" stroke-opacity="1"/><path d="m58.04 26.93a41.805 41.805 0 0 0 -7.06-5.7l-8.27 8.27a10.89138 10.89138 0 0 1 .29 2.5 11.03785 11.03785 0 0 1 -13.50009 10.70989l-4.93991 4.94011a32.85028 32.85028 0 0 0 7.44.85c9.43 0 18.67-4.06 26.04-11.44 2.59238-2.47186 2.5871-7.65114 0-10.13z" fill="#ffffff" fill-opacity="1" data-original-color="#000000ff" stroke="none" stroke-opacity="1"/><path d="m56.71 7.29a3.82668 3.82668 0 0 0 -5.39 0l-44.03 44.03a3.81129 3.81129 0 0 0 5.39 5.39l44.03-44.03a3.82668 3.82668 0 0 0 0-5.39z" fill="#ffffff" fill-opacity="1" data-original-color="#000000ff" stroke="none" stroke-opacity="1"/><path d="m23 32a6.28854 6.28854 0 0 0 .04.75l9.71-9.71a9.00837 9.00837 0 0 0 -9.75 8.96z" fill="#ffffff" fill-opacity="1" data-original-color="#000000ff" stroke="none" stroke-opacity="1"/><path d="m32 41a9.00841 9.00841 0 0 0 8.96-9.75l-9.71 9.71a6.27608 6.27608 0 0 0 .75.04z" fill="#ffffff" fill-opacity="1" data-original-color="#000000ff" stroke="none" stroke-opacity="1"/></g></g></svg>