<svg id="Layer_1" height="300" viewBox="0 0 67.68 85.38" width="300" xmlns="http://www.w3.org/2000/svg" data-name="Layer 1" version="1.1" xmlns:xlink="http://www.w3.org/1999/xlink" xmlns:svgjs="http://svgjs.dev/svgjs"><g width="100%" height="100%" transform="matrix(1,0,0,1,0,0)"><path d="m83.84 68.14a33.71 33.71 0 0 0 -17.13-29.42 20.15 20.15 0 1 0 -33.42 0 33.66 33.66 0 0 0 -17.13 29.42c0 7.12 2.19 12.09 6.7 15.2 4.29 3 10.2 3.72 15 4a16.36 16.36 0 0 0 24.2 0c10.82-.64 21.78-3.45 21.78-19.2zm-33.84 19.61a11.43 11.43 0 1 1 11.43-11.43 11.45 11.45 0 0 1 -11.43 11.43zm15.32-5.66a16.37 16.37 0 1 0 -30.64 0c-4.08-.5-6.95-1.4-9-2.83s-4.57-4-4.57-11.13a28.76 28.76 0 0 1 16-25.84 3.4 3.4 0 0 0 1.78-2.29 3.44 3.44 0 0 0 -.7-2.91 15.21 15.21 0 0 1 12.4-24.78 15.21 15.21 0 0 1 11.33 24.59 3.61 3.61 0 0 0 -.7 3 3.66 3.66 0 0 0 1.91 2.49 28.78 28.78 0 0 1 15.77 25.75c0 8.86-3.64 12.72-13.58 13.95z" transform="translate(-16.16 -7.31)" fill="#66b933" fill-opacity="1" data-original-color="#000000ff" stroke="none" stroke-opacity="1"/><circle cx="49.87" cy="82.92" r="2.14" transform="matrix(.383 -.924 .924 .383 -61.99 89.95)" fill="#66b933" fill-opacity="1" data-original-color="#000000ff" stroke="none" stroke-opacity="1"/><g transform="translate(-16.16 -7.31)"><path d="m49.7 67.19a5.25 5.25 0 0 0 -4.7 2.93 1.9 1.9 0 1 0 3.4 1.7 1.46 1.46 0 0 1 1.3-.82 1.49 1.49 0 1 1 0 3 1.9 1.9 0 0 0 -1.9 1.9.57.57 0 0 1 0 .3v2a1.9 1.9 0 0 0 3.8 0v-.74a5.29 5.29 0 0 0 -1.9-10.22z" fill="#66b933" fill-opacity="1" data-original-color="#000000ff" stroke="none" stroke-opacity="1"/><path d="m52.15 15.05a12.86 12.86 0 0 0 -1.87-.14 12.47 12.47 0 0 0 -11.69 8 1.71 1.71 0 0 0 3.19 1.24 9.06 9.06 0 0 1 8.5-5.8 8.93 8.93 0 0 1 1.37.1 1.71 1.71 0 0 0 .5-3.39z" fill="#66b933" fill-opacity="1" data-original-color="#000000ff" stroke="none" stroke-opacity="1"/></g></g></svg>