<svg id="Layer_2" height="300" viewBox="0 0 512 512" width="300" xmlns="http://www.w3.org/2000/svg" data-name="Layer 2" version="1.1" xmlns:xlink="http://www.w3.org/1999/xlink" xmlns:svgjs="http://svgjs.dev/svgjs"><g width="100%" height="100%" transform="matrix(1,0,0,1,0,0)"><g id="Icon"><g id="_66" data-name="66"><rect id="Background" fill="#2492ff" height="512" rx="150" transform="matrix(0 -1 1 0 0 512)" width="512" fill-opacity="0" data-original-color="#2492ffff" stroke="none" stroke-opacity="1" style=""/><g fill="#fff"><path d="m283.21 328.53 47.53-47.53h-129.52c-13.81 0-25-11.19-25-25 0-13.81 11.19-25 25-25h129.51s-47.53-47.53-47.53-47.53c-9.76-9.76-9.76-25.59 0-35.36 9.76-9.76 25.59-9.76 35.36 0l90.21 90.21c9.76 9.76 9.76 25.59 0 35.36l-90.21 90.21c-9.76 9.76-25.59 9.76-35.36 0-9.76-9.76-9.76-25.59 0-35.36z" fill="#ffffff" fill-opacity="1" data-original-color="#ffffffff" stroke="none" stroke-opacity="1"/><path d="m240.91 116c0-13.81-11.19-25-25-25h-70c-27.61 0-50 22.39-50 50v230c0 27.61 22.39 50 50 50h70c13.81 0 25-11.19 25-25 0-13.81-11.19-25-25-25h-57.5c-6.9 0-12.5-5.6-12.5-12.5v-205c0-6.9 5.6-12.5 12.5-12.5h57.5c13.81 0 25-11.19 25-25z" fill="#ffffff" fill-opacity="1" data-original-color="#ffffffff" stroke="none" stroke-opacity="1"/></g></g></g></g></svg>