<svg id="Layer_1" enable-background="new 0 0 512 512" viewBox="0 0 512 512" xmlns="http://www.w3.org/2000/svg" width="300" height="300" version="1.1" xmlns:xlink="http://www.w3.org/1999/xlink" xmlns:svgjs="http://svgjs.dev/svgjs"><g width="100%" height="100%" transform="matrix(1,0,0,1,0,0)"><g id="XMLID_1780_"><path id="XMLID_2130_" d="m0 0h512v512h-512z" fill="#61b9dd" fill-opacity="0" data-original-color="#61b9ddff" stroke="none" stroke-opacity="1"/><path id="XMLID_2133_" d="m512 333.4c-38.9-38.9-80.8-80.7-82.5-82.2-.3-.4-.6-.9-1-1.3-.8-.8-19.7-19.9-50.3-39.2-18-11.3-36.4-20.4-54.6-26.9-22.9-8.2-45.7-12.3-67.7-12.3s-44.7 4.2-67.7 12.3c-18.2 6.5-36.6 15.5-54.6 26.9-30.6 19.3-49.5 38.3-50.3 39.2-3.3 3.4-3.3 8.8 0 12.2.2.2 214.7 214.7 250.1 249.9h178.6z" fill="#ffffff" fill-opacity="0" data-original-color="#47a8c6ff" stroke="none" stroke-opacity="1"/><g id="XMLID_3796_"><g id="XMLID_3801_"><path id="XMLID_3802_" d="m256 185.3c-39.1 0-70.7 31.7-70.7 70.7s31.7 70.7 70.7 70.7c39.1 0 70.7-31.7 70.7-70.7s-31.6-70.7-70.7-70.7zm25.5 41.6c0-5.6 4.6-10.2 10.2-10.2s10.2 4.6 10.2 10.2-4.6 10.2-10.2 10.2-10.2-4.5-10.2-10.2zm20.5 26.3c-3.2 0-5.7-2.6-5.7-5.7 0-3.2 2.6-5.7 5.7-5.7 3.2 0 5.7 2.6 5.7 5.7s-2.6 5.7-5.7 5.7z" fill="#ffffff" fill-opacity="1" data-original-color="#ffffffff" stroke="none" stroke-opacity="1"/></g><g id="XMLID_3797_"><path id="XMLID_3798_" d="m256 340.5c-21.9 0-44.7-4.2-67.7-12.3-18.2-6.5-36.6-15.5-54.6-26.9-30.6-19.3-49.5-38.3-50.3-39.2-3.3-3.4-3.3-8.8 0-12.2.8-.8 19.7-19.9 50.3-39.2 18-11.3 36.4-20.4 54.6-26.9 22.9-8.2 45.7-12.3 67.7-12.3s44.7 4.2 67.7 12.3c18.2 6.5 36.6 15.5 54.6 26.9 30.6 19.3 49.5 38.3 50.3 39.2 3.3 3.4 3.3 8.8 0 12.2-.8.8-19.7 19.9-50.3 39.2-18 11.3-36.4 20.4-54.6 26.9-23 8.1-45.8 12.3-67.7 12.3zm-153.6-84.5c7.8 7 22.1 18.9 41 30.8 26.4 16.6 67.4 36.3 112.6 36.3 45.4 0 86.5-19.9 113-36.5 18.7-11.8 32.9-23.6 40.6-30.5-7.8-7-22.1-18.9-41-30.8-26.4-16.6-67.4-36.3-112.6-36.3-45.4 0-86.5 19.9-113 36.5-18.7 11.8-32.9 23.6-40.6 30.5z" fill="#ffffff" fill-opacity="1" data-original-color="#ffffffff" stroke="none" stroke-opacity="1"/></g></g></g></g></svg>