<svg xmlns="http://www.w3.org/2000/svg" xmlns:xlink="http://www.w3.org/1999/xlink" version="1.1" id="Capa_1" x="0px" y="0px" viewBox="0 0 512 512" style="enable-background:new 0 0 512 512;" xml:space="preserve" width="300" height="300" xmlns:svgjs="http://svgjs.dev/svgjs"><g width="100%" height="100%" transform="matrix(1,0,0,1,0,0)"><g>
	<path style="stroke-linecap: round; stroke-linejoin: round; stroke-miterlimit: 10;" d="&#10;&#9;&#9;M349.114,182.375v30.298c-3.452-3.306-8.121-5.334-13.254-5.334h-34.943v-24.964c0-25.22-20.23-45.665-45.185-45.665h0&#10;&#9;&#9;c-24.955,0-45.185,20.445-45.185,45.665v24.964h-34.943c-5.133,0-9.802,2.028-13.254,5.334v-30.298&#10;&#9;&#9;c0-52.122,41.809-94.375,93.383-94.375h0C307.305,88,349.114,130.253,349.114,182.375z" fill="#faf7f5" fill-opacity="0" data-original-color="#faf7f5ff" stroke="#66b933" stroke-opacity="1" data-original-stroke-color="#000000ff" stroke-width="20" data-original-stroke-width="20"/>
	<path style="" d="M355.139,226.823v143.694c0,10.759-8.633,19.484-19.279,19.484H175.602&#10;&#9;&#9;c-10.646,0-19.279-8.725-19.279-19.484V226.823c0-5.571,2.314-10.6,6.025-14.15c3.452-3.306,8.121-5.334,13.254-5.334h160.258&#10;&#9;&#9;c5.133,0,9.802,2.028,13.254,5.334C352.825,216.222,355.139,221.251,355.139,226.823z" fill="#ffffff" fill-opacity="0" data-original-color="#dfedffff" stroke="none" stroke-opacity="1"/>
	<path style="stroke-linecap: round; stroke-linejoin: round; stroke-miterlimit: 10;" d="&#10;&#9;&#9;M355.139,363.625v6.891c0,10.759-8.633,19.484-19.279,19.484H175.602c-10.646,0-19.279-8.725-19.279-19.484V226.823&#10;&#9;&#9;c0-5.571,2.314-10.6,6.025-14.15c3.452-3.306,8.121-5.334,13.254-5.334h160.258c5.133,0,9.802,2.028,13.254,5.334&#10;&#9;&#9;c3.711,3.55,6.025,8.579,6.025,14.15V274.5" fill="none" fill-opacity="1" stroke="#66b933" stroke-opacity="1" data-original-stroke-color="#000000ff" stroke-width="20" data-original-stroke-width="20"/>
	
		<line style="stroke-linecap: round; stroke-linejoin: round; stroke-miterlimit: 10;" x1="355.139" y1="319.575" x2="355.139" y2="319.575" fill="none" fill-opacity="1" stroke="#66b933" stroke-opacity="1" data-original-stroke-color="#000000ff" stroke-width="20" data-original-stroke-width="20"/>
	
		<circle style="stroke-linecap: round; stroke-linejoin: round; stroke-miterlimit: 10;" cx="255.731" cy="319.575" r="30" fill="#faf7f5" fill-opacity="0" data-original-color="#faf7f5ff" stroke="#66b933" stroke-opacity="1" data-original-stroke-color="#000000ff" stroke-width="20" data-original-stroke-width="20"/>
	<path style="stroke-linecap: round; stroke-linejoin: round; stroke-miterlimit: 10;" d="&#10;&#9;&#9;M480.049,357.535c6.533-14.466,11.672-29.628,15.372-45.417c14.987-63.954,4.173-129.916-30.451-185.737&#10;&#9;&#9;c-34.623-55.82-88.911-94.815-152.863-109.803s-129.912-4.173-185.73,30.452C70.559,81.655,31.566,135.945,16.579,199.899&#10;&#9;&#9;c-14.987,63.954-4.173,129.916,30.451,185.737s88.911,94.815,152.863,109.803c62.838,14.727,127.874,4.477,183.126-28.859&#10;&#9;&#9;c9.455-5.704,12.495-17.992,6.79-27.447c-5.703-9.455-17.993-12.495-27.446-6.791c-46.267,27.915-100.727,36.497-153.347,24.165&#10;&#9;&#9;C98.464,430.598,29.602,319.578,55.509,209.022C81.416,98.467,192.433,29.602,302.985,55.511S482.398,192.44,456.491,302.995&#10;&#9;&#9;c-3.102,13.235-7.417,25.937-12.893,38.056c-2.293-9.98-11.862-16.732-22.201-15.31c-10.938,1.508-18.583,11.598-17.075,22.536&#10;&#9;&#9;l7.289,52.881c0.85,6.171,4.529,11.592,9.948,14.664c1.677,0.951,3.46,1.642,5.295,2.072c4.094,0.959,8.439,0.614,12.396-1.071&#10;&#9;&#9;l49.111-20.916c10.158-4.326,14.887-16.069,10.56-26.228C495.619,361.922,487.992,357.347,480.049,357.535z" fill="#66b933" fill-opacity="0" data-original-color="#ffda8fff" stroke="#66b933" stroke-opacity="1" data-original-stroke-color="#000000ff" stroke-width="20" data-original-stroke-width="20"/>
</g></g></svg>